<svg xmlns="http://www.w3.org/2000/svg" version="1.1" xmlns:xlink="http://www.w3.org/1999/xlink" xmlns:svgjs="http://svgjs.dev/svgjs" width="360" height="560" preserveAspectRatio="none" viewBox="0 0 360 560">
    <g mask="url(&quot;#SvgjsMask1214&quot;)" fill="none">
        <rect width="360" height="560" x="0" y="0" fill="url(&quot;#SvgjsLinearGradient1215&quot;)"></rect>
        <path d="M378 560L0 560 L0 195.31Q67.94 233.25, 30 301.19Q5.1 258.29, 48 233.39Q71.82 239.21, 66 263.03Q99.24 278.27, 84 311.51Q49.68 247.19, 114 212.87Q147.81 228.68, 132 262.48Q105.27 217.75, 150 191.03Q193.5 204.53, 180 248.03Q209.2 259.23, 198 288.43Q193.83 266.26, 216 262.1Q211.75 227.85, 246 223.59Q238.75 198.34, 264 191.08Q326.52 223.61, 294 286.13Q268.54 242.66, 312 217.2Q309.24 196.44, 330 193.67Q376.4 210.07, 360 256.48Q378.03 256.51, 378 274.55z" fill="#182f5d"></path>
        <path d="M366 560L0 560 L0 364.27Q-15.79 330.48, 18 314.69Q68.94 347.63, 36 398.57Q20.2 364.77, 54 348.98Q45.04 322.02, 72 313.07Q131.73 342.8, 102 402.53Q78.63 361.16, 120 337.79Q155.66 355.45, 138 391.1Q101.88 336.99, 156 300.87Q182.88 309.75, 174 336.63Q216.68 361.31, 192 403.98Q164.8 346.78, 222 319.58Q262.52 342.1, 240 382.62Q232.44 345.06, 270 337.51Q256.44 293.94, 300 280.38Q352.15 302.53, 330 354.68Q315.2 321.88, 348 307.09Q401.89 342.98, 366 396.87z" fill="#25467d"></path>
        <path d="M372 560L0 560 L0 477.08Q10 469.08, 18 479.09Q38.91 470, 48 490.9Q49.29 462.19, 78 463.48Q75.88 431.37, 108 429.25Q114.56 405.81, 138 412.36Q143 387.37, 168 392.37Q177.24 371.61, 198 380.85Q225.27 390.12, 216 417.39Q273.85 445.24, 246 503.08Q209.02 436.1, 276 399.12Q320.27 413.39, 306 457.66Q337.42 471.08, 324 502.5Q301.81 450.31, 354 428.13Q352.66 408.79, 372 407.46z" fill="#356cb1"></path>
        <path d="M372 560L0 560 L0 590.96Q-7.19 553.77, 30 546.58Q33.45 520.03, 60 523.47Q63.71 509.18, 78 512.89Q71.54 488.43, 96 481.97Q158.84 526.81, 114 589.65Q78 535.65, 132 499.66Q160.12 509.78, 150 537.91Q134.18 504.09, 168 488.27Q217.05 519.32, 186 568.37Q209.54 573.91, 204 597.45Q159.92 535.38, 222 491.3Q260.75 500.05, 252 538.81Q285.61 542.41, 282 576.02Q243.14 507.16, 312 468.3Q363.7 490, 342 541.7Q376.73 546.43, 372 581.16z" fill="white"></path>
    </g>
    <defs>
        <mask id="SvgjsMask1214">
            <rect width="360" height="560" fill="#ffffff"></rect>
        </mask>
        <linearGradient x1="-13.89%" y1="91.07%" x2="113.89%" y2="8.93%" gradientUnits="userSpaceOnUse" id="SvgjsLinearGradient1215">
            <stop stop-color="#0e2a47" offset="0"></stop>
            <stop stop-color="rgba(133, 135, 214, 1)" offset="1"></stop>
        </linearGradient>
    </defs>
</svg>